<svg width="400" height="200" viewBox="0 0 400 200" fill="none" xmlns="http://www.w3.org/2000/svg">
<path d="M173.37 93.6498C172.959 93.6498 172.626 93.3938 172.626 93.0781V92.7794C172.626 92.5831 172.626 92.384 172.618 92.1877C172.311 82.638 164.655 74.175 153.107 70.6276C149.44 69.4954 145.555 68.9208 141.559 68.9208C141.089 68.9208 140.629 68.9265 140.166 68.9492L139.989 68.9549C139.57 68.9578 139.233 68.716 139.222 68.4002C139.211 68.147 139.207 67.8939 139.207 67.6378C139.207 53.8495 153.811 42.6329 171.763 42.6329C175.851 42.6329 179.57 43.1847 183.466 44.371L183.718 44.4506C183.963 44.5274 184.137 44.6953 184.174 44.8972C184.303 45.5544 184.37 46.2513 184.37 46.9625C184.37 50.1799 183.874 53.8126 180.181 56.3358C180.077 56.4069 179.544 56.7113 179.544 56.7113C175.085 59.098 173.189 61.8688 173.189 65.9794C173.189 66.6365 173.281 67.1599 173.489 67.6805C173.526 67.7573 173.729 68.0532 173.785 68.1243C174.855 69.2423 176.092 70.272 177.289 71.2677C180.511 73.9502 183.551 76.4849 183.551 80.6268C183.551 86.063 179.848 91.0014 173.889 93.5161C173.859 93.5275 173.829 93.5389 173.8 93.5474C173.677 93.6129 173.529 93.6498 173.37 93.6498ZM141.559 67.7801C145.748 67.7801 149.818 68.3803 153.663 69.5666C165.733 73.2732 173.748 82.1089 174.107 92.0824C178.97 89.6815 182.059 85.275 182.059 80.6268C182.059 76.9315 179.211 74.559 176.192 72.0443C174.966 71.0259 173.703 69.9705 172.574 68.7899C172.463 68.6762 172.144 68.221 172.063 68.0162C171.814 67.3932 171.7 66.7446 171.7 65.9794C171.7 61.4506 173.785 58.4011 178.674 55.7811C178.674 55.7811 179.092 55.545 179.192 55.4767C182.44 53.255 182.881 49.9238 182.881 46.9597C182.881 46.4106 182.84 45.8929 182.759 45.3865C179.103 44.2885 175.603 43.7764 171.763 43.7764C154.633 43.7764 140.7 54.4811 140.7 67.635C140.7 67.6834 140.7 67.7317 140.7 67.7829C140.981 67.7801 141.27 67.7801 141.559 67.7801Z" fill="#010130"/>
<path d="M228.203 93.5474C228.174 93.5389 228.144 93.5275 228.114 93.5161C222.151 91.0014 218.451 86.063 218.451 80.6268C218.451 76.4849 221.492 73.9502 224.714 71.2677C225.911 70.272 227.148 69.2394 228.218 68.1243C228.277 68.056 228.481 67.7573 228.514 67.6805C228.722 67.1628 228.814 66.6365 228.814 65.9794C228.814 61.8688 226.918 59.1009 222.459 56.7113C222.459 56.7113 221.925 56.4069 221.822 56.3358C218.129 53.8097 217.633 50.1799 217.633 46.9625C217.633 46.2485 217.699 45.5544 217.829 44.8972C217.87 44.6981 218.04 44.5274 218.285 44.4506L218.537 44.371C222.433 43.1847 226.151 42.6329 230.24 42.6329C248.192 42.6329 262.796 53.8495 262.796 67.6378C262.796 67.8939 262.792 68.147 262.781 68.4002C262.77 68.716 262.429 68.9578 262.014 68.9549L261.837 68.9492C261.374 68.9265 260.914 68.9208 260.444 68.9208C256.448 68.9208 252.562 69.4954 248.896 70.6276C237.348 74.175 229.688 82.638 229.385 92.1877C229.377 92.384 229.377 92.5831 229.377 92.7794V93.0781C229.377 93.3938 229.044 93.6498 228.633 93.6498C228.47 93.6498 228.322 93.6129 228.203 93.5474ZM261.299 67.7886C261.299 67.7402 261.299 67.6919 261.299 67.6407C261.299 54.4839 247.362 43.7821 230.237 43.7821C226.396 43.7821 222.896 44.2942 219.24 45.3922C219.159 45.8986 219.118 46.4163 219.118 46.9653C219.118 49.9295 219.555 53.2607 222.807 55.4824C222.907 55.5478 223.325 55.7868 223.325 55.7868C228.214 58.4039 230.299 61.4534 230.299 65.9851C230.299 66.7503 230.185 67.396 229.937 68.0219C229.855 68.2267 229.533 68.6818 229.425 68.7956C228.296 69.9762 227.029 71.0287 225.807 72.05C222.788 74.5647 219.94 76.9372 219.94 80.6325C219.94 85.2807 223.029 89.6872 227.892 92.0881C228.251 82.1146 236.266 73.2789 248.337 69.5722C252.177 68.386 256.251 67.7858 260.44 67.7858C260.729 67.7801 261.018 67.7801 261.299 67.7886Z" fill="#010130"/>
<path d="M195.851 125.454H181.407C181.263 125.454 181.118 125.422 181 125.36C180.411 125.064 179.959 124.669 179.692 124.219C179.388 123.707 179.233 123.127 179.233 122.492C179.233 121.847 179.374 121.357 179.722 120.803C179.777 120.714 180.074 120.353 180.074 120.353C182.411 117.679 183.588 114.632 183.588 111.287C183.588 107.893 182.251 104.636 179.725 101.868C179.488 101.609 179.57 101.251 179.907 101.072C180.244 100.89 180.711 100.952 180.944 101.211C183.648 104.172 185.077 107.657 185.077 111.287C185.077 114.863 183.814 118.123 181.318 120.979C181.318 120.979 181.114 121.224 181.059 121.306C180.814 121.699 180.722 122.02 180.722 122.495C180.722 122.962 180.829 123.383 181.048 123.744C181.174 123.955 181.377 124.148 181.648 124.31H195.196C195.674 121.081 197.874 102.818 188.414 91.6187C188.033 93.7921 186.666 97.4561 181.829 98.8187C181.444 98.9268 181.014 98.776 180.874 98.4773C180.733 98.1815 180.929 97.8515 181.318 97.7434C187.211 96.0821 187.07 90.0371 187.066 89.9745C187.059 89.727 187.259 89.4994 187.566 89.4198C187.87 89.3373 188.211 89.4169 188.407 89.616C194.796 96.1134 196.677 105.39 197.133 112.027C197.622 119.184 196.603 124.907 196.592 124.964C196.537 125.243 196.222 125.454 195.851 125.454Z" fill="#010130"/>
<path d="M220.122 125.454H205.678C205.307 125.454 204.992 125.243 204.941 124.962C204.929 124.905 203.911 119.181 204.4 112.024C204.855 105.387 206.737 96.1106 213.126 89.6132C213.322 89.4141 213.659 89.3345 213.966 89.417C214.274 89.4995 214.474 89.7242 214.466 89.9717C214.463 90.0314 214.322 96.0764 220.215 97.7406C220.6 97.8487 220.8 98.1787 220.659 98.4745C220.515 98.7704 220.089 98.924 219.703 98.8159C214.87 97.4533 213.503 93.7893 213.118 91.6159C203.659 102.816 205.859 121.081 206.337 124.307H219.885C220.155 124.145 220.359 123.952 220.485 123.741C220.7 123.38 220.811 122.959 220.811 122.492C220.811 122.02 220.718 121.696 220.47 121.298C220.418 121.221 220.207 120.968 220.203 120.968C217.718 118.123 216.455 114.863 216.455 111.287C216.455 107.657 217.885 104.172 220.589 101.211C220.826 100.952 221.289 100.89 221.626 101.072C221.963 101.254 222.044 101.609 221.807 101.868C219.281 104.636 217.944 107.893 217.944 111.287C217.944 114.632 219.126 117.679 221.452 120.342C221.463 120.353 221.755 120.714 221.811 120.803C222.159 121.357 222.3 121.847 222.3 122.492C222.3 123.127 222.144 123.707 221.841 124.219C221.574 124.669 221.122 125.064 220.533 125.36C220.407 125.422 220.266 125.454 220.122 125.454Z" fill="#010130"/>
<path d="M209.362 44.4734C209.148 44.4734 208.937 44.4023 208.788 44.2657C207.922 43.4578 206.64 42.997 205.277 42.997C204.355 42.997 203.725 43.1051 203.3 43.3355C202.618 43.7053 201.866 44.115 200.759 44.0495C199.462 43.9756 198.944 43.492 198.344 42.9316C197.607 42.2431 196.166 42.1464 195.37 42.1464C193.962 42.1464 192.655 42.6357 191.788 43.4863C191.533 43.7366 191.066 43.7793 190.74 43.583C190.418 43.3867 190.359 43.0283 190.614 42.7779C191.766 41.6486 193.5 41 195.37 41C197.2 41 198.651 41.4125 199.451 42.1606C200.029 42.7011 200.207 42.869 200.87 42.906C201.418 42.9344 201.777 42.7552 202.422 42.4081C203.344 41.9103 204.492 41.8534 205.274 41.8534C207.081 41.8534 208.781 42.4679 209.933 43.5375C210.196 43.7821 210.151 44.1434 209.833 44.3425C209.7 44.4307 209.533 44.4734 209.362 44.4734Z" fill="#010130"/>
<path d="M213.718 90.5292C213.526 90.5292 213.337 90.4723 213.192 90.3614C212.9 90.1366 212.9 89.7753 213.192 89.5506L216.074 87.3374L210.229 67.9564C210.166 67.7516 210.259 67.5354 210.463 67.396L216.374 63.4248C216.629 63.2513 217.007 63.2342 217.289 63.385C217.57 63.5329 217.685 63.8088 217.566 64.0563L215.104 69.1626C214.959 69.4584 214.529 69.6092 214.144 69.5011C213.759 69.3902 213.563 69.0602 213.704 68.7643L215.148 65.7717L211.785 68.0332L217.622 87.3886C217.681 87.5821 217.604 87.784 217.422 87.9234L214.248 90.3614C214.1 90.4751 213.911 90.5292 213.718 90.5292Z" fill="#010130"/>
<path d="M187.777 90.5292C187.585 90.5292 187.396 90.4723 187.252 90.3614L184.077 87.9235C183.896 87.7841 183.822 87.5821 183.877 87.3887L189.714 68.0333L186.352 65.7717L187.796 68.7644C187.94 69.0602 187.74 69.3902 187.355 69.5012C186.97 69.6093 186.54 69.4585 186.396 69.1626L183.933 64.0564C183.815 63.8117 183.929 63.5358 184.211 63.385C184.492 63.2371 184.866 63.2542 185.126 63.4249L191.037 67.3961C191.244 67.5355 191.333 67.7517 191.27 67.9565L185.426 87.3375L188.307 89.5507C188.6 89.7754 188.6 90.1367 188.307 90.3614C188.159 90.4752 187.97 90.5292 187.777 90.5292Z" fill="#010130"/>
<path d="M104.3 146.813C104.367 150.002 99.9397 151.711 94.7771 151.711H64V133.478H92.565C97.7733 133.465 102.176 135.187 102.109 138.361C102.109 140.111 100.767 141.454 98.6216 142.281C102.021 142.946 104.3 144.52 104.3 146.813ZM75.7134 137.806V140.261H89.282C90.2888 140.261 91.1157 139.637 91.1157 139.026C91.1157 138.415 90.2888 137.806 89.282 137.806H75.7134ZM91.4696 147.369C92.4765 147.369 93.3034 146.757 93.3034 146.148C93.3034 145.537 92.4765 144.928 91.4696 144.928H75.7104V147.37H91.4696V147.369Z" fill="#010130"/>
<path d="M119.147 133.45V145.904H142.595V151.683H107.433V133.45H119.147Z" fill="#010130"/>
<path d="M158.266 133.45V151.683H146.552V133.45H158.266Z" fill="#010130"/>
<path d="M193.787 133.45H205.522V151.683H192.335L176.197 140.546V151.683H164.484V133.45H180.6L193.787 143.109V133.45Z" fill="#010130"/>
<path d="M250.655 144.126C249.916 150.285 241.022 152.13 230.203 152.13C218.938 152.117 209.638 150.135 209.684 143.23V141.9C209.638 135.009 218.938 133.028 230.203 133C241.022 133.013 249.916 134.859 250.655 141.004H238.652C237.556 139.213 234.224 138.793 230.203 138.793C225.419 138.833 221.351 139.348 221.419 142.346V142.794C221.351 145.765 225.419 146.307 230.203 146.348C234.227 146.348 237.578 145.915 238.652 144.124H250.655V144.126Z" fill="#010130"/>
<path d="M264.987 133.478H278.912L295.028 151.711H281.841L279.474 148.591H264.431L262.064 151.711H248.876L264.987 133.478ZM267.824 144.141H276.071L271.959 138.756L267.824 144.141Z" fill="#010130"/>
<path d="M324.872 133.463C331.063 133.422 336.317 136.583 336.225 140.354C336.225 141.724 335.621 142.972 334.416 144.085C333.232 145.183 331.645 146.026 329.677 146.581L336.225 151.696H323.752L318.098 147.246H307.639V151.696H295.925V133.463H324.872ZM307.639 138.794V141.902H321.921C322.635 141.902 323.239 141.752 323.731 141.454C324.243 141.143 324.49 140.776 324.49 140.356C324.49 139.487 323.349 138.796 321.921 138.796H307.639V138.794Z" fill="#010130"/>
</svg>
