<?xml version="1.0" encoding="utf-8"?>
<!-- Generator: Adobe Illustrator 29.6.1, SVG Export Plug-In . SVG Version: 9.03 Build 0)  -->
<svg version="1.0" id="Capa_1" xmlns="http://www.w3.org/2000/svg" xmlns:xlink="http://www.w3.org/1999/xlink" x="0px" y="0px"
	 viewBox="0 0 1080 1080" style="enable-background:new 0 0 1080 1080;" xml:space="preserve">
<style type="text/css">
	.st0{fill:#FFFFFF;}
	.st1{enable-background:new    ;}
</style>
<g>
	<g>
		<path class="st0" d="M547.72,329.71"/>
		<path class="st0" d="M547.72,329.71"/>
		<g>
			<path class="st0" d="M465.4,500.85c-1.11,0-2.01-0.9-2.01-2.01v-1.05c0-0.69,0-1.39-0.02-2.08
				c-0.83-33.57-21.5-63.32-52.68-75.79c-9.9-3.98-20.39-6-31.18-6c-1.27,0-2.51,0.02-3.76,0.1l-0.48,0.02
				c-1.13,0.01-2.04-0.84-2.07-1.95c-0.03-0.89-0.04-1.78-0.04-2.68c0-48.47,39.43-87.9,87.9-87.9c11.04,0,21.08,1.94,31.6,6.11
				l0.68,0.28c0.66,0.27,1.13,0.86,1.23,1.57c0.35,2.31,0.53,4.76,0.53,7.26c0,11.31-1.34,24.08-11.31,32.95
				c-0.28,0.25-1.72,1.32-1.72,1.32c-12.04,8.39-17.16,18.13-17.16,32.58c0,2.31,0.25,4.15,0.81,5.98c0.1,0.27,0.65,1.31,0.8,1.56
				c2.89,3.93,6.23,7.55,9.46,11.05c8.7,9.43,16.91,18.34,16.91,32.9c0,19.11-10,36.47-26.09,45.31c-0.08,0.04-0.16,0.08-0.24,0.11
				C466.23,500.72,465.83,500.85,465.4,500.85z M379.51,409.91c11.31,0,22.3,2.11,32.68,6.28c32.59,13.03,54.23,44.09,55.2,79.15
				c13.13-8.44,21.47-23.93,21.47-40.27c0-12.99-7.69-21.33-15.84-30.17c-3.31-3.58-6.72-7.29-9.77-11.44c-0.3-0.4-1.16-2-1.38-2.72
				c-0.67-2.19-0.98-4.47-0.98-7.16c0-15.92,5.63-26.64,18.83-35.85l0,0c0,0,1.13-0.83,1.4-1.07c8.77-7.81,9.96-19.52,9.96-29.94
				c0-1.93-0.11-3.75-0.33-5.53c-9.87-3.86-19.32-5.66-29.69-5.66c-46.25,0-83.87,37.63-83.87,83.87c0,0.17,0,0.34,0,0.52
				C377.95,409.91,378.73,409.91,379.51,409.91z"/>
		</g>
		<g>
			<path class="st0" d="M613.45,500.49c-0.08-0.03-0.16-0.07-0.24-0.11c-16.1-8.84-26.09-26.2-26.09-45.31
				c0-14.56,8.21-23.47,16.91-32.9c3.23-3.5,6.57-7.13,9.46-11.05c0.16-0.24,0.71-1.29,0.8-1.56c0.56-1.82,0.81-3.67,0.81-5.98
				c0-14.45-5.12-24.18-17.16-32.58c0,0-1.44-1.07-1.72-1.32c-9.97-8.88-11.31-21.64-11.31-32.95c0-2.51,0.18-4.95,0.53-7.26
				c0.11-0.7,0.58-1.3,1.23-1.57l0.68-0.28c10.52-4.17,20.56-6.11,31.6-6.11c48.47,0,87.9,39.43,87.9,87.9
				c0,0.9-0.01,1.79-0.04,2.68c-0.03,1.11-0.95,1.96-2.07,1.95l-0.48-0.02c-1.25-0.08-2.49-0.1-3.76-0.1
				c-10.79,0-21.28,2.02-31.18,6c-31.18,12.47-51.86,42.22-52.68,75.79c-0.02,0.69-0.02,1.39-0.02,2.08v1.05
				c0,1.11-0.9,2.01-2.01,2.01C614.17,500.85,613.77,500.72,613.45,500.49z M702.81,409.94c0-0.17,0-0.34,0-0.52
				c0-46.25-37.63-83.87-83.87-83.87c-10.37,0-19.82,1.8-29.69,5.66c-0.22,1.78-0.33,3.6-0.33,5.53c0,10.42,1.18,22.13,9.96,29.94
				c0.27,0.23,1.4,1.07,1.4,1.07l0,0c13.2,9.2,18.83,19.92,18.83,35.85c0,2.69-0.31,4.96-0.98,7.16c-0.22,0.72-1.09,2.32-1.38,2.72
				c-3.05,4.15-6.47,7.85-9.77,11.44c-8.15,8.84-15.84,17.18-15.84,30.17c0,16.34,8.34,31.83,21.47,40.27
				c0.97-35.06,22.61-66.12,55.2-79.15c10.37-4.17,21.37-6.28,32.68-6.28C701.27,409.91,702.05,409.91,702.81,409.94z"/>
		</g>
		<g>
			<path class="st0" d="M526.1,612.65h-39c-0.39,0-0.78-0.11-1.1-0.33c-1.59-1.04-2.81-2.43-3.53-4.01
				c-0.82-1.8-1.24-3.84-1.24-6.07c0-2.27,0.38-3.99,1.32-5.94c0.15-0.31,0.95-1.58,0.95-1.58c6.31-9.4,9.49-20.11,9.49-31.87
				c0-11.93-3.61-23.38-10.43-33.11c-0.64-0.91-0.42-2.17,0.49-2.8c0.91-0.64,2.17-0.42,2.8,0.49c7.3,10.41,11.16,22.66,11.16,35.42
				c0,12.57-3.41,24.03-10.15,34.07l0,0c0,0-0.55,0.86-0.7,1.15c-0.66,1.38-0.91,2.51-0.91,4.18c0,1.64,0.29,3.12,0.88,4.39
				c0.34,0.74,0.89,1.42,1.62,1.99h36.58c1.29-11.35,7.23-75.55-18.31-114.92c-1.03,7.64-4.72,20.52-17.78,25.31
				c-1.04,0.38-2.2-0.15-2.58-1.2c-0.38-1.04,0.15-2.2,1.2-2.58c15.91-5.84,15.53-27.09,15.52-27.31c-0.02-0.87,0.52-1.67,1.35-1.95
				c0.82-0.29,1.74-0.01,2.27,0.69c17.25,22.84,22.33,55.45,23.56,78.78c1.32,25.16-1.43,45.28-1.46,45.48
				C527.95,611.91,527.1,612.65,526.1,612.65z"/>
		</g>
		<g>
			<path class="st0" d="M591.63,612.65h-39c-1,0-1.85-0.74-1.99-1.73c-0.03-0.2-2.78-20.32-1.46-45.48
				c1.23-23.33,6.31-55.94,23.56-78.78c0.53-0.7,1.44-0.98,2.27-0.69s1.37,1.08,1.35,1.95c-0.01,0.21-0.39,21.46,15.52,27.31
				c1.04,0.38,1.58,1.54,1.2,2.58c-0.39,1.04-1.54,1.58-2.58,1.2c-13.05-4.79-16.74-17.67-17.78-25.31
				c-25.54,39.37-19.6,103.58-18.31,114.92h36.58c0.73-0.57,1.28-1.25,1.62-1.99c0.58-1.27,0.88-2.75,0.88-4.39
				c0-1.66-0.25-2.8-0.92-4.2c-0.14-0.27-0.71-1.16-0.72-1.16c-6.71-10-10.12-21.46-10.12-34.03c0-12.76,3.86-25.01,11.16-35.42
				c0.64-0.91,1.89-1.13,2.8-0.49s1.13,1.89,0.49,2.8c-6.82,9.73-10.43,21.18-10.43,33.11c0,11.76,3.19,22.47,9.47,31.83
				c0.03,0.04,0.82,1.31,0.97,1.62c0.94,1.95,1.32,3.67,1.32,5.94c0,2.23-0.42,4.27-1.24,6.07c-0.72,1.58-1.94,2.97-3.53,4.01
				C592.4,612.54,592.02,612.65,591.63,612.65z"/>
		</g>
		<g>
			<path class="st0" d="M562.58,327.98c-0.58,0-1.15-0.25-1.55-0.73c-2.34-2.84-5.8-4.46-9.48-4.46c-2.49,0-4.19,0.38-5.34,1.19
				c-1.84,1.3-3.87,2.74-6.86,2.51c-3.5-0.26-4.9-1.96-6.52-3.93c-1.99-2.42-5.88-2.76-8.03-2.76c-3.8,0-7.33,1.72-9.67,4.71
				c-0.69,0.88-1.95,1.03-2.83,0.34c-0.87-0.69-1.03-1.95-0.34-2.83c3.11-3.97,7.79-6.25,12.84-6.25c4.94,0,8.86,1.45,11.02,4.08
				c1.56,1.9,2.04,2.49,3.83,2.62c1.48,0.1,2.45-0.53,4.19-1.75c2.49-1.75,5.59-1.95,7.7-1.95c4.88,0,9.47,2.16,12.58,5.92
				c0.71,0.86,0.59,2.13-0.27,2.83C563.49,327.83,563.04,327.98,562.58,327.98z"/>
		</g>
		<g>
			<path class="st0" d="M574.34,489.88c-0.52,0-1.03-0.2-1.42-0.59c-0.79-0.79-0.79-2.06,0-2.85l7.78-7.78l-15.78-68.13
				c-0.17-0.72,0.08-1.48,0.63-1.97l15.96-13.96c0.69-0.61,1.71-0.67,2.47-0.14c0.76,0.52,1.07,1.49,0.75,2.36l-6.65,17.95
				c-0.39,1.04-1.55,1.57-2.59,1.19c-1.04-0.39-1.57-1.55-1.19-2.59l3.9-10.52l-9.08,7.95l15.76,68.04
				c0.16,0.68-0.05,1.39-0.54,1.88l-8.57,8.57C575.37,489.69,574.86,489.88,574.34,489.88z"/>
		</g>
		<g>
			<path class="st0" d="M504.3,489.88c-0.52,0-1.03-0.2-1.42-0.59l-8.57-8.57c-0.49-0.49-0.69-1.2-0.54-1.88l15.76-68.04l-9.08-7.95
				l3.9,10.52c0.39,1.04-0.15,2.2-1.19,2.59c-1.04,0.38-2.2-0.15-2.59-1.19l-6.65-17.95c-0.32-0.86-0.01-1.83,0.75-2.36
				c0.76-0.52,1.77-0.46,2.47,0.14l15.96,13.96c0.56,0.49,0.8,1.25,0.63,1.97l-15.78,68.13l7.78,7.78c0.79,0.79,0.79,2.06,0,2.85
				C505.33,489.69,504.82,489.88,504.3,489.88z"/>
		</g>
	</g>
	<g class="st1">
		<path class="st0" d="M225.97,709.07c0.22,17.22-14.29,26.45-31.21,26.45H93.89v-98.46h93.62c17.07-0.07,31.5,9.23,31.28,26.37
			c0,9.45-4.4,16.7-11.43,21.17C218.5,688.19,225.97,696.69,225.97,709.07z M132.28,660.43v13.26h44.47c3.3,0,6.01-3.37,6.01-6.67
			c0-3.3-2.71-6.59-6.01-6.59H132.28z M183.92,712.07c3.3,0,6.01-3.3,6.01-6.59c0-3.3-2.71-6.59-6.01-6.59h-51.65v13.19H183.92z"/>
		<path class="st0" d="M274.63,636.91v67.25h76.85v31.21H236.24v-98.46H274.63z"/>
		<path class="st0" d="M402.84,636.91v98.46h-38.39v-98.46H402.84z"/>
		<path class="st0" d="M519.26,636.91h38.46v98.46H514.5l-52.89-60.14v60.14h-38.39v-98.46h52.82l43.22,52.16V636.91z"/>
		<path class="st0" d="M705.64,694.56c-2.42,33.26-31.57,43.22-67.03,43.22c-36.92-0.07-67.4-10.77-67.25-48.06v-7.18
			c-0.15-37.21,30.33-47.91,67.25-48.06c35.46,0.07,64.61,10.04,67.03,43.22H666.3c-3.59-9.67-14.51-11.94-27.69-11.94
			c-15.68,0.22-29.01,3-28.79,19.19v2.42c-0.22,16.04,13.11,18.97,28.79,19.19c13.19,0,24.17-2.34,27.69-12.01H705.64z"/>
		<path class="st0" d="M752.61,637.06h45.64l52.82,98.46h-43.22l-7.76-16.85h-49.3l-7.76,16.85h-43.22L752.61,637.06z
			 M761.91,694.64h27.03l-13.48-29.08L761.91,694.64z"/>
		<path class="st0" d="M948.88,636.98c20.29-0.22,37.51,16.85,37.21,37.21c0,7.4-1.98,14.14-5.93,20.15
			c-3.88,5.93-9.08,10.48-15.53,13.48l21.46,27.62h-40.88l-18.53-24.03H892.4v24.03h-38.39v-98.46H948.88z M892.4,665.77v16.78
			h46.81c2.34,0,4.32-0.81,5.93-2.42c1.68-1.68,2.49-3.66,2.49-5.93c0-4.69-3.74-8.42-8.42-8.42H892.4z"/>
	</g>
</g>
</svg>
