<svg width="1494" height="1333" viewBox="0 0 1494 1333" fill="none" xmlns="http://www.w3.org/2000/svg">
<path d="M413.372 830.796C408.408 830.796 404.383 826.757 404.383 821.775V817.063C404.383 813.966 404.383 810.825 404.294 807.728C400.582 657.067 308.141 523.55 168.697 467.585C124.422 449.723 77.5084 440.658 29.2531 440.658C23.5734 440.658 18.0278 440.747 12.4375 441.106L10.2908 441.196C5.2372 441.241 1.16759 437.426 1.03342 432.445C0.899253 428.45 0.854492 424.456 0.854492 420.417C0.854492 202.885 177.194 25.925 393.963 25.925C443.336 25.925 488.237 34.6316 535.285 53.3464L538.326 54.603C541.278 55.8148 543.38 58.4627 543.827 61.6492C545.392 72.0164 546.197 83.0119 546.197 94.2318C546.197 144.991 540.205 202.302 495.616 242.11C494.364 243.232 487.924 248.034 487.924 248.034C434.079 285.688 411.181 329.401 411.181 394.252C411.181 404.619 412.299 412.877 414.803 421.09C415.251 422.302 417.71 426.969 418.381 428.091C431.306 445.729 446.243 461.976 460.688 477.683C499.597 520.005 536.314 559.993 536.314 625.337C536.314 711.102 491.591 789.013 419.633 828.687C419.276 828.866 418.918 829.046 418.56 829.181C417.084 830.213 415.295 830.796 413.372 830.796ZM29.2531 422.661C79.834 422.661 128.984 432.131 175.405 450.845C321.155 509.324 417.934 648.72 422.272 806.068C480.992 768.189 518.291 698.671 518.291 625.337C518.291 567.039 483.899 529.609 447.451 489.935C432.647 473.869 417.397 457.218 403.757 438.593C402.415 436.798 398.569 429.617 397.585 426.386C394.589 416.557 393.203 406.325 393.203 394.252C393.203 322.804 418.381 274.693 477.414 233.359C477.414 233.359 482.468 229.634 483.676 228.557C522.897 193.506 528.219 140.951 528.219 94.1869C528.219 85.5251 527.727 77.357 526.743 69.3685C482.602 52.0449 440.34 43.9666 393.963 43.9666C187.123 43.9666 18.8775 212.849 18.8775 420.372C18.8775 421.135 18.8775 421.898 18.8775 422.706C22.2764 422.661 25.7648 422.661 29.2531 422.661Z" fill="white"/>
<path d="M1075.49 829.181C1075.13 829.046 1074.77 828.866 1074.41 828.687C1002.41 789.013 957.731 711.102 957.731 625.337C957.731 559.993 994.448 520.005 1033.36 477.683C1047.8 461.976 1062.74 445.684 1075.66 428.091C1076.38 427.014 1078.84 422.302 1079.24 421.09C1081.75 412.922 1082.86 404.619 1082.86 394.252C1082.86 329.401 1059.97 285.733 1006.12 248.034C1006.12 248.034 999.681 243.232 998.428 242.11C953.84 202.257 947.848 144.991 947.848 94.2318C947.848 82.967 948.653 72.0164 950.218 61.6492C950.71 58.5076 952.767 55.8148 955.719 54.603L958.76 53.3464C1005.81 34.6316 1050.71 25.925 1100.08 25.925C1316.85 25.925 1493.19 202.885 1493.19 420.417C1493.19 424.456 1493.15 428.45 1493.01 432.445C1492.88 437.426 1488.76 441.241 1483.75 441.196L1481.61 441.106C1476.02 440.747 1470.47 440.658 1464.79 440.658C1416.54 440.658 1369.62 449.723 1325.35 467.585C1185.9 523.55 1093.42 657.067 1089.75 807.728C1089.66 810.825 1089.66 813.966 1089.66 817.063V821.775C1089.66 826.757 1085.64 830.796 1080.67 830.796C1078.7 830.796 1076.92 830.213 1075.49 829.181ZM1475.12 422.796C1475.12 422.033 1475.12 421.27 1475.12 420.462C1475.12 212.894 1306.83 44.0563 1100.04 44.0563C1053.66 44.0563 1011.4 52.1346 967.257 69.4582C966.273 77.4468 965.781 85.6148 965.781 94.2766C965.781 141.041 971.059 193.595 1010.32 228.646C1011.53 229.678 1016.59 233.448 1016.59 233.448C1075.62 274.738 1100.8 322.849 1100.8 394.342C1100.8 406.415 1099.41 416.602 1096.42 426.476C1095.43 429.707 1091.54 436.888 1090.24 438.683C1076.6 457.308 1061.31 473.914 1046.55 490.025C1010.1 529.699 975.71 567.128 975.71 625.427C975.71 698.76 1013.01 768.279 1071.73 806.157C1076.07 648.809 1172.85 509.413 1318.59 450.935C1364.97 432.22 1414.17 422.751 1464.75 422.751C1468.24 422.661 1471.72 422.661 1475.12 422.796Z" fill="white"/>
<path d="M684.836 1332.55H510.42C508.676 1332.55 506.932 1332.06 505.5 1331.07C498.39 1326.4 492.933 1320.16 489.713 1313.07C486.046 1304.99 484.168 1295.84 484.168 1285.83C484.168 1275.64 485.867 1267.92 490.071 1259.17C490.742 1257.78 494.32 1252.08 494.32 1252.08C522.54 1209.89 536.761 1161.83 536.761 1109.05C536.761 1055.51 520.617 1004.12 490.116 960.453C487.254 956.369 488.238 950.715 492.307 947.887C496.377 945.015 502.012 946.002 504.83 950.086C537.477 996.806 554.74 1051.78 554.74 1109.05C554.74 1165.46 539.489 1216.9 509.346 1261.95C509.346 1261.95 506.887 1265.81 506.216 1267.12C503.264 1273.31 502.146 1278.38 502.146 1285.88C502.146 1293.24 503.443 1299.88 506.082 1305.58C507.602 1308.9 510.062 1311.95 513.327 1314.51H676.921C682.69 1263.57 709.255 975.443 595.034 798.752C590.428 833.04 573.925 890.845 515.518 912.343C510.867 914.048 505.679 911.669 503.98 906.957C502.28 902.29 504.651 897.083 509.346 895.378C580.5 869.168 578.8 773.799 578.755 772.812C578.666 768.907 581.081 765.317 584.793 764.06C588.46 762.759 592.575 764.015 594.945 767.157C672.091 869.662 694.81 1016.01 700.31 1120.72C706.214 1233.64 693.915 1323.93 693.781 1324.83C693.11 1329.23 689.309 1332.55 684.836 1332.55Z" fill="white"/>
<path d="M977.901 1332.55H803.485C799.012 1332.55 795.211 1329.23 794.585 1324.79C794.451 1323.89 782.152 1233.59 788.055 1120.67C793.556 1015.97 816.275 869.617 893.421 767.112C895.791 763.971 899.861 762.714 903.573 764.015C907.285 765.317 909.7 768.862 909.61 772.767C909.566 773.709 907.866 869.079 979.019 895.333C983.671 897.039 986.086 902.245 984.386 906.912C982.642 911.58 977.499 914.003 972.848 912.298C914.485 890.8 897.983 832.995 893.331 798.707C779.111 975.398 805.676 1263.57 811.445 1314.46H975.039C978.304 1311.91 980.763 1308.85 982.284 1305.53C984.878 1299.83 986.22 1293.19 986.22 1285.83C986.22 1278.38 985.102 1273.26 982.105 1266.98C981.479 1265.77 978.93 1261.78 978.885 1261.78C948.876 1216.9 933.626 1165.46 933.626 1109.05C933.626 1051.78 950.889 996.806 983.536 950.086C986.399 946.002 991.989 945.015 996.059 947.887C1000.13 950.76 1001.11 956.369 998.25 960.453C967.749 1004.12 951.605 1055.51 951.605 1109.05C951.605 1161.83 965.871 1209.89 993.956 1251.9C994.091 1252.08 997.624 1257.78 998.295 1259.17C1002.5 1267.92 1004.2 1275.64 1004.2 1285.83C1004.2 1295.84 1002.32 1304.99 998.653 1313.07C995.433 1320.16 989.976 1326.4 982.865 1331.07C981.345 1332.06 979.646 1332.55 977.901 1332.55Z" fill="white"/>
<path d="M847.983 54.9621C845.389 54.9621 842.84 53.8401 841.051 51.6859C830.586 38.9401 815.112 31.6696 798.654 31.6696C787.518 31.6696 779.915 33.375 774.772 37.0103C766.543 42.8446 757.465 49.3072 744.093 48.275C728.44 47.1081 722.179 39.4786 714.934 30.6373C706.034 19.7765 688.637 18.2505 679.022 18.2505C662.028 18.2505 646.241 25.9699 635.776 39.3889C632.69 43.3383 627.055 44.0115 623.119 40.9148C619.228 37.8181 618.513 32.1632 621.599 28.2138C635.507 10.3966 656.437 0.164017 679.022 0.164017C701.115 0.164017 718.646 6.67164 728.306 18.475C735.283 27.0021 737.429 29.65 745.435 30.2334C752.054 30.6822 756.392 27.8548 764.173 22.3795C775.309 14.5256 789.173 13.6279 798.609 13.6279C820.434 13.6279 840.961 23.322 854.87 40.1967C858.045 44.0564 857.508 49.756 853.662 52.8976C852.052 54.2888 850.04 54.9621 847.983 54.9621Z" fill="white"/>
<path d="M900.576 781.563C898.25 781.563 895.969 780.666 894.225 778.915C890.692 775.37 890.692 769.67 894.225 766.125L929.019 731.208L858.447 425.443C857.687 422.212 858.805 418.801 861.265 416.602L932.642 353.95C935.727 351.213 940.289 350.943 943.688 353.322C947.087 355.656 948.473 360.009 947.042 363.913L917.302 444.472C915.558 449.14 910.37 451.518 905.719 449.813C901.068 448.063 898.697 442.857 900.397 438.189L917.839 390.976L877.231 426.655L947.713 732.016C948.429 735.068 947.49 738.254 945.298 740.454L906.971 778.915C905.182 780.711 902.901 781.563 900.576 781.563Z" fill="white"/>
<path d="M587.342 781.563C585.017 781.563 582.736 780.666 580.992 778.915L542.665 740.454C540.473 738.255 539.579 735.068 540.25 732.016L610.732 426.655L570.124 390.976L587.566 438.189C589.31 442.857 586.895 448.063 582.244 449.813C577.593 451.518 572.405 449.14 570.661 444.472L540.921 363.914C539.489 360.054 540.876 355.7 544.275 353.322C547.674 350.988 552.191 351.257 555.321 353.95L626.698 416.602C629.202 418.801 630.275 422.212 629.515 425.443L558.944 731.208L593.737 766.125C597.271 769.67 597.271 775.37 593.737 778.915C591.949 780.711 589.668 781.563 587.342 781.563Z" fill="white"/>
</svg>
